# Blender v2.66 (sub 1) OBJ File: ''
# www.blender.org
mtllib cube.mtl
o Cube
v 1.000000 -1.000000 -1.000000
v 1.000000 -1.000000 1.000000
v -1.000000 -1.000000 1.000000
v -1.000000 -1.000000 -1.000000
v 1.000000 1.000000 -0.999999
v 0.999999 1.000000 1.000001
v -1.000000 1.000000 1.000000
v -1.000000 1.000000 -1.000000
vt 0.999900 0.000100
vt 0.999900 0.999900
vt 0.000100 0.999900
vt 0.000100 0.000101
vt 0.000000 0.000000
vt 1.000000 0.000000
vt 1.000000 1.000000
vt 0.000000 1.000000
vn 1.000000 -0.000000 0.000001
vn 1.000000 0.000000 -0.000000
vn 0.000000 -1.000000 0.000000
vn -0.000000 1.000000 0.000000
vn -0.000000 -0.000000 1.000000
vn -1.000000 -0.000000 -0.000000
vn 0.000000 0.000000 -1.000000
usemtl Material
s off
f 1/1/1 5/2/1 6/3/1
f 2/4/2 1/1/2 6/3/2
usemtl Material_NONE
f 1/5/3 2/6/3 3/7/3
f 5/5/4 8/6/4 7/7/4
f 2/5/5 6/6/5 3/8/5
f 3/5/6 7/6/6 4/8/6
f 5/5/7 1/6/7 4/7/7
f 4/8/3 1/5/3 3/7/3
f 6/8/4 5/5/4 7/7/4
f 6/6/5 7/7/5 3/8/5
f 7/6/6 8/7/6 4/8/6
f 8/8/7 5/5/7 4/7/7
